<svg id="Layer_1" data-name="Layer 1" xmlns="http://www.w3.org/2000/svg" viewBox="0 0 100 100"><defs><style>.cls-1{fill:#f7941d;}.cls-2{fill:#231f20;}</style></defs><rect class="cls-1" width="100" height="100" rx="50"/><path class="cls-2" d="M95.31,59.57c.26-.1.39,0,.39.16s-.16.31-.46.62a15.39,15.39,0,0,1-3.78,2.7c-1.5.87-3,1.64-4.41,2.31-3.85,1.75-7,2.42-9.33,2q-6.5-1.16-4.56-13A33.72,33.72,0,0,1,73.82,51c.33-1.42.55-2.3.65-2.67s.16-.9.31-1.77c0-.05,0-.19,0-.43a1.51,1.51,0,0,1,.12-.5.53.53,0,0,0,0-.46c-.08-.1-.22-.1-.43,0a8.33,8.33,0,0,0-.85.39,37.42,37.42,0,0,0-3.78,2.93c-1.85,1.59-3.16,2.73-3.93,3.4q-4.32,3.62-8,6.4a34.5,34.5,0,0,1-3.17,2.24q-2.7,1.7-3.24.39a5.2,5.2,0,0,1-.15-2.32,16.58,16.58,0,0,1,.39-2.47c.3-1.34.77-3,1.38-5,.62-1.8,1.36-3.89,2.2-6.29S57,40,57.8,37.69,59.35,33.25,60,31.4a35.28,35.28,0,0,0,1.32-4.86c.15-1.13,0-1.78-.39-1.93a3.48,3.48,0,0,0-2.39.08,15.08,15.08,0,0,0-4,2.47q-1.62,1.38-3.62,3.39A181.93,181.93,0,0,0,37.73,46.3q-6.4,8.41-11.88,16.9c-.57.93-1.19,2-1.85,3.09q3.78-5.87,7-10.42t9.49-12.66A143.15,143.15,0,0,1,50.78,31.32a38.57,38.57,0,0,1,5.94-4.94,7.75,7.75,0,0,1,2.63-1.15,2.46,2.46,0,0,1,1,.15c.15.1.2.34.15.7a7.58,7.58,0,0,1-.3,1.69q-.56,2.09-1.93,5.87c-.11.15-.52,1.21-1.24,3.16l-1.62,4.4q-3.93,10.5-4.79,15a16,16,0,0,0-.38,3.7q.15,2.32,1.47,2.7c.77.21,1.95-.12,3.55-1,.87-.57,2-1.31,3.24-2.24s2.53-1.93,3.89-3,2.92-2.35,4.67-3.82,3-2.53,3.86-3.2c.57-.47,1-.77,1.16-.93a3.94,3.94,0,0,1,.85-.54c.1,0,.16.08.16.23a1.94,1.94,0,0,0-.16.47,2.54,2.54,0,0,0-.08.38,62.52,62.52,0,0,0-1.23,6.41q-1.16,8.88,2.62,12a7.71,7.71,0,0,0,5.56,1.47,21.93,21.93,0,0,0,3.71-.7,7.24,7.24,0,0,1,.73-.27c.38-.12.71-.21,1-.27a6.66,6.66,0,0,1,1.32-.23c.36,0,.3.16-.16.46a4.34,4.34,0,0,1-1.16.62,14.87,14.87,0,0,1-3.62,1,13.73,13.73,0,0,1-3.71.23,7.74,7.74,0,0,1-5.25-2.7,10.64,10.64,0,0,1-2.16-6A28.58,28.58,0,0,1,70.69,54c.1-.57.21-1.21.31-1.93l.31-1.62s-.13.05-.23.15l-.35.35-.27.27q-7.26,6.25-10,8.41a37.24,37.24,0,0,1-5.33,3.71,5.88,5.88,0,0,1-3.24.85,3.1,3.1,0,0,1-2.55-1.78,7.11,7.11,0,0,1-.54-4.25,43.38,43.38,0,0,1,1.55-6.71Q51.4,47.84,55,38q1.69-4.71,2.39-6.71.69-2.16,1.08-3.48l.08-.38c0-.05-.11,0-.31.07a27.17,27.17,0,0,0-5.25,4.1q-2.31,2.23-4.86,5-4.41,5-8.88,11Q37.58,49.77,34.65,54c-2,2.83-3.12,4.52-3.48,5.09Q26.7,65.44,23.3,70.92c-.62,1.08-1.18,2-1.7,2.86-.2.67-.38,1.28-.54,1.85A25.89,25.89,0,0,1,19.44,80a3.74,3.74,0,0,1-1.7,1.85A2.24,2.24,0,0,1,16,82a2.29,2.29,0,0,1-1.39-1.12,3.42,3.42,0,0,1,0-3,28.46,28.46,0,0,1,2-4.17c.36-.67.79-1.42,1.31-2.24.72-2.47,1.28-4.53,1.7-6.17Q21,59.88,22.07,52.86a98.66,98.66,0,0,0,1.31-13q.23-7.95-1.55-12.12a6.54,6.54,0,0,0-3.24-3.7Q16.06,23,13.11,25a5,5,0,0,0-.92.62Q11.41,26.39,10,28c-.93,1.11-1.47,1.74-1.63,1.89-1.08,1.24-1.69,1.57-1.85,1a.52.52,0,0,1,0-.39A10,10,0,0,1,8,26.92a11.78,11.78,0,0,1,6.91-5.82,7.33,7.33,0,0,1,7.37,1.66,12.85,12.85,0,0,1,3,4.86A29.92,29.92,0,0,1,27,36.11a88.07,88.07,0,0,1-.31,10q-.46,4.86-1.24,9.88c-.26,1.69-.54,3.31-.85,4.86q6-9,11.35-16a194.22,194.22,0,0,1,12.66-15A38.64,38.64,0,0,1,56,23.68a8.65,8.65,0,0,1,3.32-1.16c1.85-.2,3.06.31,3.62,1.55a7.75,7.75,0,0,1-.23,4.4c-.1.36-.26.87-.46,1.54-.67,2.27-1.67,5.17-3,8.72q-.23.63-1.7,4.36c-1,2.5-1.63,4.22-2,5.18s-.77,2.36-1.31,4.24a36.7,36.7,0,0,0-1.12,5.13A9.75,9.75,0,0,0,53,58.88c-.06.36,0,.57.23.62a1.08,1.08,0,0,0,.46-.16q1.08-.62,3.63-2.47,1.69-1.3,7.79-6.33c.36-.25.76-.56,1.2-.92l1.2-1c.36-.28.74-.6,1.16-1s.79-.67,1.15-.93A18,18,0,0,1,73,44.52,3.76,3.76,0,0,1,74.94,44c.41,0,.67.11.77.31a4.06,4.06,0,0,0,.08.54,6.84,6.84,0,0,1,.15,1.08.32.32,0,0,0-.08.23v.54c0,.26-.36,1.5-.92,3.71A32.2,32.2,0,0,0,74,55.17a20.24,20.24,0,0,0-.15,4.33c.15,3.44,1.13,5.58,2.93,6.4a6.64,6.64,0,0,0,3.78.39,15.28,15.28,0,0,0,4.71-1.24,41.64,41.64,0,0,0,8.65-4.63A13.23,13.23,0,0,1,95.31,59.57Z"/></svg>